# xmcd CD database file
#
# Track frame offsets:
#	182
#	12075
#	29485
#	42712
#	58432
#	73080
#	85032
#	100867
#	119607
#	133352
#
# Disc length: 1953 seconds
#
# Revision: 2
# Processed by: cddbd v1.4PL0 Copyright (c) Steve Scherf et al.
# Submitted via: Feurio! 1.63 - http://www.feurio.com
#
DISCID=96079f0a
DTITLE=Tanya Tucker - Greatest Hits 1990 - 1992
DYEAR=1900
DGENRE=country
TTITLE0=It's A Little Too Late
TTITLE1=Some Kind Of Trouble
TTITLE2=What Do I Do With Me
TTITLE3=Down To My Last Teardrop
TTITLE4=Don't Go Out
TTITLE5=Walking Shoes
TTITLE6=Oh What It Did To Me
TTITLE7=Two Sparrows In A Hurricane
TTITLE8=If Your Heart Ain't Busy Tonight
TTITLE9=It Won't Be Me
EXTD=
EXTT0=
EXTT1=
EXTT2=
EXTT3=
EXTT4=
EXTT5=
EXTT6=
EXTT7=
EXTT8=
EXTT9=
PLAYORDER=
